<svg width="28" height="27" viewBox="0 0 28 27" fill="none" xmlns="http://www.w3.org/2000/svg">
<path d="M26.7189 11.8586L26.7189 11.8586C26.027 15.5028 22.8498 19.047 19.6338 21.767C18.0532 23.1038 16.5159 24.1982 15.3728 24.9587C14.802 25.3384 14.3313 25.6337 14.0049 25.833C14.0033 25.8341 14.0016 25.8351 14 25.8361C13.9984 25.8351 13.9967 25.8341 13.9951 25.833C13.6687 25.6337 13.198 25.3384 12.6272 24.9587C11.4841 24.1982 9.94682 23.1038 8.36617 21.767C5.15024 19.047 1.97296 15.5028 1.28108 11.8586L1.28106 11.8586C0.57031 8.1163 1.28179 5.40729 2.56908 3.6587C3.8597 1.90558 5.80018 1.01427 7.77776 1.01427H7.81023L7.84262 1.01216C8.88183 0.944615 9.92086 1.15926 10.8543 1.6355C11.7878 2.11183 12.5835 2.83352 13.1584 3.72923L14 5.04032L14.8416 3.72923C15.4165 2.83352 16.2122 2.11183 17.1457 1.6355C18.0791 1.15926 19.1182 0.944615 20.1574 1.01216L20.1898 1.01427H20.2222C22.1998 1.01427 24.1403 1.90558 25.4309 3.6587C26.7182 5.40729 27.4297 8.1163 26.7189 11.8586Z" stroke="current" stroke-width="2"/>
</svg>
